:SAMPLES-PER-SECOND 30
:FULLY-SPECIFIED
:DEGREES
267
root  -41.0934 34.7671 3.70943 -167.472 86.5634 -177.135
RightUpLeg  -7.02441 -19.5189 -2.45531
RightLeg  4.27657 -2.28102 -0.0225177
RightFoot  6.44484 0.0386612 -0.0920646
RightToes  -29.9177 -0.144356 -0.24986
Spine  -1.76437 0.313638 0.349088
Spine1  -3.59018 0.747801 1.2998
HEad  -51.8205 6.67301 -17.8206
LeftShoulder1  -1.94126e-019 -3.10601e-018 -2.51263e-017
LeftArm  -7.31624 22.5226 -83.4548
LeftForeArm  34.0001 -19.5174 -3.16609
LeftHand  -0.381882 -1.16375 6.87725
RightShoulder  -4.96962e-017 0 -2.36833e-017
RightArm  -19.0296 -21.1777 76.6228
RightForeArm  57.1001 14.2324 1.21158
RightHand  -0.371166 -1.01496 -9.7882
LeftUpLeg  -7.56979 4.90722 3.46035
LeftLeg  3.93217 13.1199 0.0562868
LeftFoot  8.21289 -0.135445 2.0392
LeftToes  -29.0276 2.40056e-006 -7.68412e-008
268
root  -41.0635 34.7538 3.76523 -166.333 86.4048 -176.032
RightUpLeg  -7.10825 -19.5878 -2.2856
RightLeg  4.51562 -2.3403 -0.0328567
RightFoot  6.23814 0.038656 -0.0920886
RightToes  -29.8456 -0.14429 -0.249707
Spine  -1.79477 0.303955 0.239353
Spine1  -3.6554 0.718904 1.07366
HEad  -50.8157 7.98846 -15.4655
LeftShoulder1  -1.94126e-019 -3.10601e-018 -2.51263e-017
LeftArm  -7.42244 22.5856 -83.4241
LeftForeArm  34.1087 -19.3581 -3.13652
LeftHand  -0.382667 -1.15371 6.86038
RightShoulder  -4.96962e-017 0 -2.36833e-017
RightArm  -20.6954 -21.4449 76.6697
RightForeArm  58.3072 13.5492 1.29489
RightHand  -0.378265 -1.01505 -9.97759
LeftUpLeg  -7.70102 4.7635 3.64563
LeftLeg  4.15777 13.1371 0.107607
LeftFoot  8.1149 -0.131875 2.01494
LeftToes  -29.161 2.40056e-006 -7.68412e-008
269
root  -41.0244 34.7439 3.82597 -165.167 86.212 -174.885
RightUpLeg  -7.11167 -19.6741 -2.09938
RightLeg  4.67414 -2.43156 -0.0408783
RightFoot  6.04248 0.0387428 -0.0929699
RightToes  -29.6494 -0.144236 -0.249522
Spine  -1.80598 0.266007 0.144424
Spine1  -3.68104 0.633472 0.879336
HEad  -49.8988 8.95457 -13.1805
LeftShoulder1  -1.94126e-019 -3.10601e-018 -2.51263e-017
LeftArm  -7.30901 22.7124 -83.3825
LeftForeArm  33.872 -19.3458 -3.12651
LeftHand  -0.379646 -1.04084 6.91903
RightShoulder  -4.96962e-017 0 -2.36833e-017
RightArm  -21.9945 -21.6404 76.6915
RightForeArm  59.1563 13.0577 1.35517
RightHand  -0.37412 -1.11881 -10.0959
LeftUpLeg  -7.78189 4.53804 3.85745
LeftLeg  4.33438 13.1826 0.148231
LeftFoot  8.05387 -0.129713 2.00393
LeftToes  -29.2794 2.40056e-006 -7.68412e-008
270
root  -40.9932 34.7368 3.87966 -164.324 86.0741 -174.053
RightUpLeg  -7.11884 -19.7627 -1.94745
RightLeg  4.8047 -2.45955 -0.0469487
RightFoot  5.89992 0.0388556 -0.0939231
RightToes  -29.577 -0.144186 -0.249016
Spine  -1.82662 0.234886 0.0542547
Spine1  -3.72414 0.562918 0.697044
HEad  -48.7773 9.51201 -11.0009
LeftShoulder1  -1.94126e-019 -3.10601e-018 -2.51263e-017
LeftArm  -7.23608 22.8691 -83.3553
LeftForeArm  33.8627 -19.2736 -3.11121
LeftHand  -0.378095 -1.13766 6.86763
RightShoulder  -4.96962e-017 0 -2.36833e-017
RightArm  -22.9683 -21.8448 76.7195
RightForeArm  59.629 12.7748 1.38807
RightHand  -0.369461 -1.14127 -10.2658
LeftUpLeg  -7.82166 4.46907 4.02868
LeftLeg  4.43204 13.1397 0.169945
LeftFoot  8.02071 -0.12778 1.98732
LeftToes  -29.4114 2.40056e-006 -7.68412e-008
271
root  -40.9641 34.7324 3.93579 -163.252 85.9946 -173.004
RightUpLeg  -7.13172 -19.744 -1.77735
RightLeg  4.89511 -2.52662 -0.052229
RightFoot  5.74897 0.0389282 -0.0941626
RightToes  -29.3512 -0.144133 -0.248559
Spine  -1.81871 0.186181 -0.0241893
Spine1  -3.70973 0.46053 0.540216
HEad  -47.7727 9.7482 -8.98153
LeftShoulder1  -1.94126e-019 -3.10601e-018 -2.51263e-017
LeftArm  -7.08702 23.0451 -83.2774
LeftForeArm  33.8397 -19.3321 -3.10777
LeftHand  -0.371623 -1.16059 6.73045
RightShoulder  -4.96962e-017 0 -2.36833e-017
RightArm  -23.431 -21.9441 76.8118
RightForeArm  59.6342 12.7832 1.38705
RightHand  -0.370806 -1.16404 -10.2638
LeftUpLeg  -7.83524 4.39839 4.21277
LeftLeg  4.46838 13.1495 0.178334
LeftFoot  8.01086 -0.127114 1.98505
LeftToes  -29.5099 2.40056e-006 -7.68412e-008
272
root  -40.9304 34.7273 3.98722 -161.779 85.9911 -171.556
RightUpLeg  -7.1434 -19.6551 -1.59998
RightLeg  4.9665 -2.58802 -0.0567356
RightFoot  5.64252 0.0388947 -0.0929031
RightToes  -29.2221 -0.144068 -0.248191
Spine  -1.84705 0.16984 -0.0956817
Spine1  -3.76792 0.424845 0.396466
HEad  -46.6975 9.77013 -7.0088
LeftShoulder1  -1.94126e-019 -3.10601e-018 -2.51263e-017
LeftArm  -6.79394 23.3032 -83.166
LeftForeArm  33.7678 -19.3273 -3.09782
LeftHand  -0.367991 -1.14435 6.68111
RightShoulder  -4.96962e-017 0 -2.36833e-017
RightArm  -23.5537 -22.1762 76.9525
RightForeArm  59.2978 13.0379 1.35672
RightHand  -0.37517 -1.07927 -10.1741
LeftUpLeg  -7.82768 4.43644 4.39917
LeftLeg  4.50328 13.1443 0.186199
LeftFoot  7.98423 -0.126375 1.97701
LeftToes  -29.6708 2.40056e-006 -7.68412e-008
273
root  -40.9022 34.727 4.03399 -160.747 86.0532 -170.544
RightUpLeg  -7.10245 -19.5969 -1.47236
RightLeg  4.89936 -2.55824 -0.0530823
RightFoot  5.61218 0.0386284 -0.0884938
RightToes  -29.1562 -0.143985 -0.247899
Spine  -1.87551 0.159717 -0.143476
Spine1  -3.82518 0.402789 0.30706
HEad  -45.6972 9.54607 -5.37321
LeftShoulder1  -1.94126e-019 -3.10601e-018 -2.51263e-017
LeftArm  -6.70276 23.5245 -83.1445
LeftForeArm  33.7578 -19.0294 -3.0386
LeftHand  -0.366541 -1.17356 6.62399
RightShoulder  -4.96962e-017 0 -2.36833e-017
RightArm  -23.5081 -22.3161 77.0852
RightForeArm  58.7942 13.3646 1.31639
RightHand  -0.378127 -1.04354 -10.1109
LeftUpLeg  -7.76413 4.41351 4.53457
LeftLeg  4.43912 13.2497 0.172971
LeftFoot  8.02684 -0.128091 2.00327
LeftToes  -29.6678 2.40056e-006 -7.68412e-008
274
root  -40.8781 34.7269 4.07633 -158.824 86.188 -168.655
RightUpLeg  -7.08567 -19.4977 -1.30398
RightLeg  4.80637 -2.50796 -0.0479617
RightFoot  5.62331 0.0383162 -0.0837629
RightToes  -29.107 -0.143876 -0.247664
Spine  -1.87641 0.138221 -0.169643
Spine1  -3.82828 0.363072 0.256817
HEad  -45.0677 9.13064 -3.95536
LeftShoulder1  -1.94126e-019 -3.10601e-018 -2.51263e-017
LeftArm  -6.62725 23.7194 -83.0689
LeftForeArm  33.7737 -18.7871 -2.99738
LeftHand  -0.364508 -1.18691 6.62493
RightShoulder  -4.96962e-017 0 -2.36833e-017
RightArm  -23.1207 -22.3247 77.2896
RightForeArm  58.0353 13.8136 1.26001
RightHand  -0.379851 -1.03121 -10.0501
LeftUpLeg  -7.71601 4.46611 4.69757
LeftLeg  4.40393 13.3454 0.166083
LeftFoot  8.04866 -0.129617 2.02344
LeftToes  -29.95 2.40056e-006 -7.68412e-008
275
root  -40.8534 34.7274 4.10859 -156.727 86.3771 -166.588
RightUpLeg  -7.05842 -19.3761 -1.17239
RightLeg  4.69064 -2.39511 -0.0409411
RightFoot  5.65992 0.03761 -0.0738947
RightToes  -29.0647 -0.143733 -0.247472
Spine  -1.91063 0.149799 -0.157232
Spine1  -3.89692 0.390532 0.285025
HEad  -44.5434 8.48759 -2.93753
LeftShoulder1  -1.94126e-019 -3.10601e-018 -2.51263e-017
LeftArm  -6.64596 23.9302 -83.0894
LeftForeArm  33.8849 -18.3323 -2.93144
LeftHand  -0.363354 -1.19789 6.63594
RightShoulder  -4.96962e-017 0 -2.36833e-017
RightArm  -22.9012 -22.3527 77.4493
RightForeArm  57.3828 14.2178 1.20981
RightHand  -0.380406 -0.986636 -9.97282
LeftUpLeg  -7.64046 4.70717 4.82439
LeftLeg  4.34264 13.3363 0.15184
LeftFoot  8.04169 -0.129903 2.02191
LeftToes  -30.0545 2.40056e-006 -7.68412e-008
276
root  -40.8324 34.7291 4.12984 -154.711 86.6181 -164.62
RightUpLeg  -7.0613 -19.2289 -1.08627
RightLeg  4.5716 -2.2804 -0.0342159
RightFoot  5.70017 0.0368204 -0.0634861
RightToes  -29.0242 -0.143549 -0.247306
Spine  -1.87692 0.124869 -0.127296
Spine1  -3.8301 0.348515 0.347277
HEad  -44.562 7.83158 -2.38512
LeftShoulder1  -1.94126e-019 -3.10601e-018 -2.51263e-017
LeftArm  -6.74067 24.0333 -83.0833
LeftForeArm  34.0198 -18.016 -2.88797
LeftHand  -0.364547 -1.17432 6.59198
RightShoulder  -4.96962e-017 0 -2.36833e-017
RightArm  -22.6425 -22.1244 77.6739
RightForeArm  56.6965 14.6478 1.16025
RightHand  -0.375273 -1.03112 -9.93267
LeftUpLeg  -7.57173 4.9541 4.89215
LeftLeg  4.27735 13.3525 0.13695
LeftFoot  8.01372 -0.130247 2.01961
LeftToes  -29.958 2.40056e-006 -7.68412e-008
277
root  -40.814 34.7324 4.14627 -152.167 86.9223 -162.136
RightUpLeg  -7.06106 -19.0255 -1.0124
RightLeg  4.39036 -2.16248 -0.0255851
RightFoot  5.78013 0.0360412 -0.0540357
RightToes  -29.0136 -0.143315 -0.247151
Spine  -1.85189 0.124956 -0.0493257
Spine1  -3.77894 0.357192 0.506302
HEad  -44.6802 7.11299 -2.21423
LeftShoulder1  -1.94126e-019 -3.10601e-018 -2.51263e-017
LeftArm  -6.95754 24.1037 -83.1773
LeftForeArm  34.2119 -17.6116 -2.83727
LeftHand  -0.367907 -1.18516 6.64149
RightShoulder  -4.96962e-017 0 -2.36833e-017
RightArm  -22.3477 -21.8814 77.8079
RightForeArm  56.1233 15.06 1.1181
RightHand  -0.375023 -0.973634 -9.85081
LeftUpLeg  -7.49433 5.28448 4.9345
LeftLeg  4.18472 13.3497 0.115547
LeftFoot  8.03094 -0.131187 2.02567
LeftToes  -30.0383 2.40056e-006 -7.68412e-008
278
root  -40.8003 34.7371 4.15643 -148.763 87.2763 -158.802
RightUpLeg  -7.10127 -18.7441 -0.954693
RightLeg  4.24111 -2.0723 -0.0191048
RightFoot  5.84675 0.035322 -0.0464107
RightToes  -28.8768 -0.143024 -0.24699
Spine  -1.82926 0.149579 0.074706
Spine1  -3.73099 0.415354 0.757839
HEad  -45.0053 6.34745 -2.4169
LeftShoulder1  -1.94126e-019 -3.10601e-018 -2.51263e-017
LeftArm  -7.14459 24.125 -83.3492
LeftForeArm  34.3719 -17.1712 -2.78274
LeftHand  -0.375124 -1.21158 6.74436
RightShoulder  -4.96962e-017 0 -2.36833e-017
RightArm  -21.7435 -21.6731 77.8138
RightForeArm  55.4683 15.5377 1.08191
RightHand  -0.376484 -0.929384 -9.75848
LeftUpLeg  -7.41615 5.63124 4.95313
LeftLeg  4.0795 13.3887 0.0915268
LeftFoot  8.05861 -0.132709 2.04058
LeftToes  -30.1672 2.40056e-006 -7.68412e-008
279
root  -40.7997 34.7407 4.15234 -145.03 87.6669 -155.174
RightUpLeg  -7.23896 -18.3812 -0.957305
RightLeg  4.16634 -2.01858 -0.0159644
RightFoot  5.90907 0.0347518 -0.0420425
RightToes  -29.0119 -0.142669 -0.246808
Spine  -1.81269 0.18449 0.216786
Spine1  -3.69388 0.493617 1.04623
HEad  -45.5255 5.72372 -2.77613
LeftShoulder1  -1.94126e-019 -3.10601e-018 -2.51263e-017
LeftArm  -7.27717 24.1254 -83.5372
LeftForeArm  34.6548 -16.8889 -2.74533
LeftHand  -0.380423 -1.2278 6.82237
RightShoulder  -4.96962e-017 0 -2.36833e-017
RightArm  -21.1087 -21.4669 77.7443
RightForeArm  54.8884 16.0023 1.06422
RightHand  -0.376966 -0.960754 -9.72198
LeftUpLeg  -7.37754 5.99984 4.8909
LeftLeg  3.95477 13.4548 0.0629685
LeftFoot  8.06306 -0.134107 2.05414
LeftToes  -30.1221 2.40056e-006 -7.68412e-008
280
root  -40.7847 34.7414 4.14898 -141.585 87.9586 -151.824
RightUpLeg  -7.35085 -18.1857 -0.971726
RightLeg  4.14225 -1.90608 -0.0142307
RightFoot  5.92462 0.0335853 -0.0304377
RightToes  -29.0767 -0.142242 -0.246588
Spine  -1.79107 0.179299 0.361596
Spine1  -3.64826 0.49398 1.33401
HEad  -46.2316 5.20358 -3.13075
LeftShoulder1  -1.94126e-019 -3.10601e-018 -2.51263e-017
LeftArm  -7.22879 24.1668 -83.625
LeftForeArm  34.7706 -16.9517 -2.76823
LeftHand  -0.379179 -1.21998 6.83777
RightShoulder  -4.96962e-017 0 -2.36833e-017
RightArm  -20.7645 -21.2415 77.7096
RightForeArm  54.6581 16.3079 1.06144
RightHand  -0.376562 -0.841032 -9.73538
LeftUpLeg  -7.36799 6.29603 4.83712
LeftLeg  3.92322 13.4595 0.055651
LeftFoot  8.03012 -0.134181 2.04837
LeftToes  -30.0848 2.40056e-006 -7.68412e-008
281
root  -40.7667 34.7424 4.14639 -137.918 88.2224 -148.266
RightUpLeg  -7.44901 -17.9437 -0.992847
RightLeg  4.08357 -1.88439 -0.0121377
RightFoot  5.93389 0.032939 -0.0277098
RightToes  -29.0841 -0.141735 -0.246315
Spine  -1.76607 0.165635 0.519791
Spine1  -3.59475 0.475207 1.65178
HEad  -47.3183 4.76436 -3.42044
LeftShoulder1  -1.94126e-019 -3.10601e-018 -2.51263e-017
LeftArm  -7.1981 24.1416 -83.7278
LeftForeArm  34.87 -17.0651 -2.79296
LeftHand  -0.377522 -1.16988 6.82637
RightShoulder  -4.96962e-017 0 -2.36833e-017
RightArm  -20.4206 -21.0316 77.6144
RightForeArm  54.3524 16.5471 1.07167
RightHand  -0.376589 -0.865111 -9.70908
LeftUpLeg  -7.36167 6.64452 4.76749
LeftLeg  3.86077 13.4029 0.0409508
LeftFoot  8.01409 -0.133806 2.03768
LeftToes  -30.1138 2.40056e-006 -7.68412e-008
